<svg width="180" height="32" viewBox="0 0 180 32" fill="none" xmlns="http://www.w3.org/2000/svg">
<g clip-path="url(#clip0_158_17859)">
<path d="M81.5814 14.012L76.7425 3.63373C76.5893 3.3053 76.2608 3.08635 75.8886 3.08635H73.1517C72.4511 3.08635 71.9913 3.83078 72.3197 4.46574L79.2167 17.9532C79.2824 18.0845 79.3261 18.2378 79.3261 18.3911V27.6965C79.3261 28.222 79.7422 28.638 80.2676 28.638H82.7637C83.2892 28.638 83.7052 28.222 83.7052 27.6965V18.3692C83.7052 18.2159 83.749 18.0845 83.8147 17.9313L90.7116 4.44385C91.0401 3.80889 90.5803 3.06445 89.8796 3.06445H87.1427C86.7705 3.06445 86.4421 3.2834 86.2888 3.61183L81.5814 14.012Z" fill="black"/>
<path d="M108.447 14.0126H100.608V7.18131H110.811C111.227 7.18131 111.6 6.89667 111.709 6.48066L112.3 4.26925C112.453 3.67808 112.016 3.08691 111.403 3.08691H97.1488C96.6233 3.08691 96.2073 3.50292 96.2073 4.02841V27.6752C96.2073 28.2006 96.6233 28.6167 97.1488 28.6167H99.6448C100.17 28.6167 100.586 28.2006 100.586 27.6752V18.0851H107.834C108.25 18.0851 108.622 17.8005 108.731 17.3844L109.322 15.1949C109.52 14.6038 109.06 14.0126 108.447 14.0126Z" fill="black"/>
<path d="M122.328 18.0845H129.619C130.035 18.0845 130.407 17.7999 130.517 17.3839L131.108 15.1944C131.261 14.6032 130.824 14.012 130.21 14.012H122.306V7.15885H132.553C132.969 7.15885 133.341 6.87421 133.451 6.4582L134.042 4.24679C134.195 3.65562 133.757 3.06445 133.144 3.06445H118.891C118.365 3.06445 117.949 3.48046 117.949 4.00594V27.6527C117.949 28.1782 118.365 28.5942 118.891 28.5942H122.328H131.502C131.918 28.5942 132.29 28.3096 132.4 27.8936L132.991 25.6821C133.144 25.091 132.706 24.4998 132.093 24.4998H122.328V18.0845Z" fill="black"/>
<path d="M145.099 18.0845H152.368C152.806 18.0845 153.178 17.7999 153.288 17.3839L153.857 15.1944C154.01 14.6032 153.551 14.012 152.938 14.012H145.099V7.15885H155.28C155.696 7.15885 156.069 6.87421 156.178 6.4582L156.769 4.24679C156.922 3.65562 156.485 3.06445 155.872 3.06445H141.662C141.136 3.06445 140.72 3.48046 140.72 4.00594V27.6527C140.72 28.1782 141.136 28.5942 141.662 28.5942H145.099H154.317C154.755 28.5942 155.127 28.3096 155.237 27.8936L155.806 25.6821C155.959 25.091 155.499 24.4998 154.886 24.4998H145.099V18.0845Z" fill="black"/>
<path d="M168.199 24.5217V4.00594C168.199 3.48046 167.783 3.06445 167.257 3.06445H164.761C164.236 3.06445 163.82 3.48046 163.82 4.00594V24.5217V27.6746C163.82 28.2001 164.236 28.6161 164.761 28.6161H178.511H179.19L179.978 25.7259C180.131 25.1348 179.693 24.5436 179.059 24.5436H168.199V24.5217Z" fill="black"/>
<path d="M65.6854 3.06486H63.474C63.1237 3.06486 62.7953 3.26192 62.642 3.56845L56.3362 15.8954L55.2634 17.9974L47.9285 3.56845C47.7752 3.26192 47.4468 3.04297 47.0965 3.04297H44.9288C44.4253 3.04297 44.0092 3.43708 43.9874 3.94067L42.6299 27.5874C42.608 28.1348 43.024 28.5727 43.5713 28.5727H46.6586C47.1622 28.5727 47.5782 28.1786 47.6001 27.6969L48.4321 13.9905L53.4898 23.909C53.6431 24.2156 53.9715 24.4126 54.3219 24.4126H56.2924C56.6428 24.4126 56.9712 24.2156 57.1244 23.909L62.1822 14.0124L63.0142 27.7188C63.0361 28.2224 63.4521 28.5946 63.9557 28.5946H67.0429C67.5903 28.5946 68.0063 28.1348 67.9844 27.6093L66.6269 3.96257C66.5831 3.45898 66.189 3.06486 65.6854 3.06486Z" fill="black"/>
<path d="M24.7196 31.6823H6.96266C3.10911 31.6823 0 28.5732 0 24.7196V6.96266C0 3.10911 3.10911 0 6.96266 0H24.7196C28.5732 0 31.6823 3.10911 31.6823 6.96266V24.7196C31.6823 28.5732 28.5732 31.6823 24.7196 31.6823Z" fill="#193563"/>
<path d="M23.5592 25.0262C24.6354 25.0262 25.5078 24.1538 25.5078 23.0776C25.5078 22.0014 24.6354 21.1289 23.5592 21.1289C22.483 21.1289 21.6105 22.0014 21.6105 23.0776C21.6105 24.1538 22.483 25.0262 23.5592 25.0262Z" fill="#FBC100"/>
<path d="M24.0628 8.4301C23.9752 7.57619 23.3621 6.89744 22.5301 6.72228C21.6981 6.54712 20.8442 6.91933 20.4282 7.66377L15.7207 16.0496L10.7067 7.61998C10.2688 6.89744 9.41491 6.52522 8.58289 6.72228C7.75088 6.91933 7.15971 7.64187 7.09402 8.47389L6.15253 22.9247C6.08685 23.9975 6.89697 24.9171 7.96983 24.9828C8.01362 24.9828 8.05741 24.9828 8.1012 24.9828C9.10838 24.9828 9.96229 24.1946 10.028 23.1655L10.5535 14.9767L14.0567 20.8884C14.0786 20.9103 14.1005 20.9541 14.1224 20.976C14.1662 21.0417 14.2099 21.0855 14.2537 21.1512C14.2975 21.195 14.3413 21.2388 14.3851 21.2825C14.4289 21.3263 14.4727 21.3701 14.5165 21.4139C14.5822 21.4577 14.626 21.5015 14.6916 21.5453C14.7135 21.5672 14.7573 21.5891 14.7792 21.611C14.8011 21.6329 14.823 21.6329 14.8668 21.6548C14.8887 21.6767 14.9106 21.6767 14.9544 21.6986C15.1514 21.7861 15.3704 21.8518 15.5893 21.8518C15.6112 21.8518 15.6331 21.8518 15.655 21.8518C15.6769 21.8518 15.6988 21.8518 15.7207 21.8518C15.8083 21.8518 15.8959 21.8518 15.9835 21.8299C16.0053 21.8299 16.0053 21.8299 16.0272 21.8299C16.1367 21.808 16.2243 21.7861 16.3119 21.7642C16.3338 21.7642 16.3776 21.7423 16.3995 21.7423C16.5089 21.6986 16.6184 21.6548 16.706 21.5891L16.7279 21.5672C16.8155 21.5015 16.903 21.4577 16.9906 21.3701C17.0125 21.3482 17.0344 21.3263 17.0563 21.3263C17.1439 21.2607 17.2096 21.1731 17.2753 21.0855C17.2972 21.0636 17.2972 21.0417 17.3191 21.0417C17.3628 20.9979 17.3847 20.9322 17.4285 20.8884L20.7566 14.9549L21.1069 18.6551C21.2164 19.728 22.1579 20.5162 23.2307 20.4067C24.3036 20.2973 25.0699 19.3558 24.9824 18.2829L24.0628 8.4301Z" fill="white"/>
</g>
<defs>
<clipPath id="clip0_158_17859">
<rect width="180" height="31.6823" fill="white"/>
</clipPath>
</defs>
</svg>
